<svg id="Layer_1" data-name="Layer 1" xmlns="http://www.w3.org/2000/svg" width="24.3528mm" height="16.3528mm" viewBox="0 0 69.0315 46.3543"><defs><style>.cls-1{fill:#1f2021;}.cls-1,.cls-2{stroke:#231f20;stroke-miterlimit:10;}.cls-2,.cls-3{fill:#f4f4f5;}.cls-4{fill:#231f20;}</style></defs><title>favicon</title><rect class="cls-1" x="23.1772" y="0.5" width="45.3543" height="45.3543"/><circle class="cls-2" cx="23.1772" cy="23.1772" r="22.6772"/><path class="cls-3" d="M41.8714,10.6962V36.49H38.3792V24.7547H24.4652V36.49H20.973V10.6962h3.4922V22.1981h13.914V10.6962Z" transform="translate(23.1772 0.5)"/><path class="cls-4" d="M15.3314,27.52a13.033,13.033,0,0,1-.5313,3.87,7.8229,7.8229,0,0,1-1.5659,2.8887,6.8309,6.8309,0,0,1-2.5469,1.81,8.97,8.97,0,0,1-3.4741.63,13.8248,13.8248,0,0,1-3.6357-.5039c.0239-.3477.0537-.6934.09-1.0352s.0659-.6806.09-1.0166a.8105.8105,0,0,1,.2251-.4951.7976.7976,0,0,1,.585-.1894,3.0818,3.0818,0,0,1,.855.1621,5.0577,5.0577,0,0,0,1.4311.1621,5.8774,5.8774,0,0,0,2.1241-.36,3.7508,3.7508,0,0,0,1.5659-1.1152,5.1942,5.1942,0,0,0,.9629-1.9355,10.3709,10.3709,0,0,0,.333-2.7989V10.6366h3.4922Z" transform="translate(23.1772 0.5)"/></svg>