<?xml version="1.0" encoding="utf-8"?>
<!-- Generator: Adobe Illustrator 23.0.1, SVG Export Plug-In . SVG Version: 6.00 Build 0)  -->
<svg version="1.1" id="Layer_1" xmlns="http://www.w3.org/2000/svg" xmlns:xlink="http://www.w3.org/1999/xlink" x="0px" y="0px"
	 viewBox="0 0 197.1 51.3" style="enable-background:new 0 0 197.1 51.3;" xml:space="preserve">
<style type="text/css">
	.st0{opacity:0.7;}
	.st1{fill:#231F20;}
	.st2{opacity:0.14;}
	.st3{fill-rule:evenodd;clip-rule:evenodd;fill:#F1F1F1;}
	.st4{fill-rule:evenodd;clip-rule:evenodd;fill:#F3F3F3;}
	.st5{fill-rule:evenodd;clip-rule:evenodd;fill:#EFEFEF;}
	.st6{fill-rule:evenodd;clip-rule:evenodd;fill:#E7E7E7;}
	.st7{fill-rule:evenodd;clip-rule:evenodd;fill:#E5E5E5;}
	.st8{fill-rule:evenodd;clip-rule:evenodd;fill:#E6E6E6;}
	.st9{fill-rule:evenodd;clip-rule:evenodd;fill:#E2E2E2;}
</style>
<title>break</title>
<g>
	<g id="Objects">
		<g class="st0">
			<path class="st1" d="M16.3,26c0,1.3-1.1,2.4-2.4,2.4c-1.3,0-2.4-1.1-2.4-2.4c0-1.3,1.1-2.4,2.4-2.4c0,0,0,0,0,0
				C15.2,23.5,16.3,24.6,16.3,26z"/>
			<path class="st1" d="M27,26c0,1.3-1.1,2.4-2.4,2.4c-1.3,0-2.4-1.1-2.4-2.4c0-1.3,1.1-2.4,2.4-2.4c0,0,0,0,0,0
				C25.9,23.5,27,24.6,27,26z"/>
			<path class="st1" d="M37.6,26c0,1.3-1.1,2.4-2.4,2.4c-1.3,0-2.4-1.1-2.4-2.4c0-1.3,1.1-2.4,2.4-2.4c0,0,0,0,0,0
				C36.5,23.5,37.6,24.6,37.6,26z"/>
			<path class="st1" d="M48.2,26c0,1.3-1.1,2.4-2.4,2.4c-1.3,0-2.4-1.1-2.4-2.4c0-1.3,1.1-2.4,2.4-2.4c0,0,0,0,0,0
				C47.1,23.5,48.2,24.6,48.2,26z"/>
			<path class="st1" d="M58.9,26c0,1.3-1.1,2.4-2.4,2.4c-1.3,0-2.4-1.1-2.4-2.4c0-1.3,1.1-2.4,2.4-2.4c0,0,0,0,0,0
				C57.8,23.5,58.9,24.6,58.9,26z"/>
			<path class="st1" d="M69.5,26c0,1.3-1.1,2.4-2.4,2.4c-1.3,0-2.4-1.1-2.4-2.4c0-1.3,1.1-2.4,2.4-2.4c0,0,0,0,0,0
				C68.4,23.5,69.5,24.6,69.5,26z"/>
			<path class="st1" d="M80.1,26c0,1.3-1.1,2.4-2.4,2.4c-1.3,0-2.4-1.1-2.4-2.4c0-1.3,1.1-2.4,2.4-2.4c0,0,0,0,0,0
				C79,23.5,80.1,24.6,80.1,26z"/>
			<path class="st1" d="M90.8,26c0,1.3-1.1,2.4-2.4,2.4c-1.3,0-2.4-1.1-2.4-2.4c0-1.3,1.1-2.4,2.4-2.4c0,0,0,0,0,0
				C89.7,23.5,90.8,24.6,90.8,26z"/>
			<path class="st1" d="M101.4,26c0,1.3-1.1,2.4-2.4,2.4c-1.3,0-2.4-1.1-2.4-2.4c0-1.3,1.1-2.4,2.4-2.4c0,0,0,0,0,0
				C100.3,23.5,101.4,24.6,101.4,26z"/>
			<path class="st1" d="M112,26c0,1.3-1.1,2.4-2.4,2.4c-1.3,0-2.4-1.1-2.4-2.4c0-1.3,1.1-2.4,2.4-2.4c0,0,0,0,0,0
				C110.9,23.5,112,24.6,112,26z"/>
			<path class="st1" d="M122.7,26c0,1.3-1.1,2.4-2.4,2.4c-1.3,0-2.4-1.1-2.4-2.4c0-1.3,1.1-2.4,2.4-2.4c0,0,0,0,0,0
				C121.6,23.5,122.7,24.6,122.7,26z"/>
			<path class="st1" d="M133.3,26c0,1.3-1.1,2.4-2.4,2.4c-1.3,0-2.4-1.1-2.4-2.4c0-1.3,1.1-2.4,2.4-2.4c0,0,0,0,0,0
				C132.2,23.5,133.3,24.6,133.3,26z"/>
			<path class="st1" d="M143.9,26c0,1.3-1.1,2.4-2.4,2.4c-1.3,0-2.4-1.1-2.4-2.4c0-1.3,1.1-2.4,2.4-2.4c0,0,0,0,0,0
				C142.8,23.5,143.9,24.6,143.9,26z"/>
			<path class="st1" d="M154.6,26c0,1.3-1.1,2.4-2.4,2.4c-1.3,0-2.4-1.1-2.4-2.4c0-1.3,1.1-2.4,2.4-2.4c0,0,0,0,0,0
				C153.5,23.5,154.6,24.6,154.6,26z"/>
			<path class="st1" d="M165.2,26c0,1.3-1.1,2.4-2.4,2.4c-1.3,0-2.4-1.1-2.4-2.4c0-1.3,1.1-2.4,2.4-2.4c0,0,0,0,0,0
				C164.1,23.5,165.2,24.6,165.2,26z"/>
			<path class="st1" d="M175.8,26c0,1.3-1.1,2.4-2.4,2.4c-1.3,0-2.4-1.1-2.4-2.4c0-1.3,1.1-2.4,2.4-2.4c0,0,0,0,0,0
				C174.7,23.5,175.8,24.6,175.8,26z"/>
			<path class="st1" d="M186.5,26c0,1.3-1.1,2.4-2.4,2.4c-1.3,0-2.4-1.1-2.4-2.4c0-1.3,1.1-2.4,2.4-2.4c0,0,0,0,0,0
				C185.4,23.5,186.5,24.6,186.5,26z"/>
			<path class="st1" d="M197.1,26c0,1.3-1.1,2.4-2.4,2.4c-1.3,0-2.4-1.1-2.4-2.4c0-1.3,1.1-2.4,2.4-2.4c0,0,0,0,0,0
				C196,23.5,197.1,24.6,197.1,26z"/>
			<path class="st1" d="M207.7,26c0,1.3-1.1,2.4-2.4,2.4c-1.3,0-2.4-1.1-2.4-2.4c0-1.3,1.1-2.4,2.4-2.4c0,0,0,0,0,0
				C206.6,23.5,207.7,24.6,207.7,26z"/>
			<path class="st1" d="M218.4,26c0,1.3-1.1,2.4-2.4,2.4s-2.4-1.1-2.4-2.4c0-1.3,1.1-2.4,2.4-2.4C217.3,23.5,218.4,24.6,218.4,26z"
				/>
			<path class="st1" d="M229,26c0,1.3-1.1,2.4-2.4,2.4c-1.3,0-2.4-1.1-2.4-2.4c0-1.3,1.1-2.4,2.4-2.4c0,0,0,0,0,0
				C227.9,23.5,229,24.6,229,26z"/>
			<path class="st1" d="M239.6,26c0,1.3-1.1,2.4-2.4,2.4c-1.3,0-2.4-1.1-2.4-2.4c0-1.3,1.1-2.4,2.4-2.4c0,0,0,0,0,0
				C238.6,23.5,239.6,24.6,239.6,26z"/>
			<path class="st1" d="M250.3,26c0,1.3-1.1,2.4-2.4,2.4c-1.3,0-2.4-1.1-2.4-2.4c0-1.3,1.1-2.4,2.4-2.4c0,0,0,0,0,0
				C249.2,23.5,250.3,24.6,250.3,26z"/>
		</g>
	</g>
	<g id="Background">
		<g class="st2">
			<g>
				<g>
					<path class="st3" d="M214.7,28.4c0.4-1.2,0.1-3.1,1.6-3c0.5,0,0.8,1.9,0.5,3.1C216.2,30.2,215.4,28.2,214.7,28.4z"/>
					<path class="st4" d="M196.4,20.1c0.7-0.5,0.4,0.4,0.5,0.6C196.8,20.5,196.6,20.3,196.4,20.1z"/>
					<path class="st3" d="M215.8,18.1c-0.1,0.1-0.3,0.2-0.3,0.2c-0.2-0.2-0.3-0.4-0.3-0.7c0-0.3,0.2-0.5,0.4-0.3
						C215.8,17.5,215.9,17.8,215.8,18.1z"/>
					<path class="st4" d="M203.2,19c0.1,0.1,0.2,0.1,0.3,0.2c-0.1,0.2-0.3,0.4-0.4,0.6c-0.1,0.1-0.3-0.1-0.3-0.2
						C202.8,19.4,202.9,19.1,203.2,19z"/>
					<path class="st5" d="M167.7,29.6h1.4c-0.1,1.1,0.2,2.3-0.3,3.4c-0.6,0.4-0.9-0.3-1.3-0.5c-1-0.7-1.7,0-2.4,1.1
						c-0.5,0.8-1.2,1.4-2,0.7c-0.6-0.5-0.9-1.4-0.7-2.2c0.2-1.3,0.9-1.9,1.9-1.9C165.4,30.2,166.6,30.5,167.7,29.6z"/>
					<path class="st5" d="M37.8,25.8c0.5-1.2,1.1-1.9,2.2-1.9c0.7,0.1,1.4,0.4,1.9,1c0.8,0.7,0.2,1.7,0.2,2.6c0,0.5,0,1,0,1.6
						c-0.7,2-1.1,2.2-1.9,0.7C39.3,28.4,38.6,27.1,37.8,25.8z"/>
					<path class="st5" d="M70.6,31.1c0.9,1.2,2.3,1.4,3.6,2c0.7,0.5,0.9,1.4,0.4,2.1c-0.4,0.8-0.9,0.4-1.4-0.1
						c-0.8-0.9-2-1.3-3.2-1.2c-0.5,0-1.2,0-1.2-1C68.8,32.3,69.9,31,70.6,31.1z"/>
					<path class="st5" d="M40.3,36c1.5-2.3,2.8-4.3,5.4-2.7c-1.1,0.9-2.1,1.9-2.8,3.1C42,37.9,41.2,37,40.3,36z"/>
					<path class="st5" d="M62.9,32.1c0.9,0.8,2,1.3,3.2,1.3c0.5-0.1,1.2-0.1,1.1,1c-0.1,0.9-0.2,2-1.1,2.1c-0.7,0.1-1.4,0.3-1.9-0.6
						C63.7,34.7,62.7,33.8,62.9,32.1z"/>
					<path class="st5" d="M151.2,39c-0.4,0-0.9-0.1-0.9-0.7c0-0.7,0.6-1.3,1.3-1.3c0.4,0,0.7,0.5,0.6,1.1
						C152.3,39.1,151.7,39,151.2,39z"/>
					<path class="st5" d="M238.2,28.9c0.3-0.8,0.7-1.2,1.4-1.3c0.5,0.7,0.4,1.6-0.3,2.2c-0.1,0.1-0.2,0.1-0.3,0.2
						C238.4,30.3,238.3,29.6,238.2,28.9z"/>
					<path class="st5" d="M61.7,32.5c-0.5,0-0.9-0.3-0.9-0.8c0,0,0-0.1,0-0.1c0-1,0.8-0.9,1.2-1c0.6-0.2,0.9,0.6,0.8,1.2
						C62.7,32.6,61.9,31.9,61.7,32.5z"/>
					<path class="st5" d="M235.9,33.4c0.2,0.6,0.3,1.3,0.5,1.9c-0.2,0.2-0.3,0.4-0.5,0.6h-0.5c-0.2-0.4-0.7-0.3-0.9-0.6
						c-0.3-0.3-0.7-0.5-0.5-1.3c0.7,0.1,0.9-0.9,1.4-1.3C235.5,33,235.7,33.2,235.9,33.4z"/>
					<path class="st5" d="M84.2,34.6h0.5c0,0.2,0,0.4,0,0.6c-0.1,1.1-0.5,1.4-1.2,1.1c-0.4-0.1-0.5-0.5-0.4-0.9
						C83.1,34.5,83.7,34.7,84.2,34.6z"/>
					<path class="st5" d="M221,35.3c0.4,0.1,1-0.2,1.1,0.6c0.1,0.5-0.4,0.6-0.7,0.6c-0.4-0.1-1,0.2-1.1-0.6
						C220.3,35.4,220.7,35.3,221,35.3z"/>
					<path class="st5" d="M234,34c0.2,0.4,0.3,0.8,0.5,1.3c-0.3,0-0.6,0-0.9,0c-0.4,0-0.8-0.3-0.8-0.7c0,0,0,0,0,0
						c-0.1-0.5,0.1-1,0.6-1.1c0.1,0,0.1,0,0.2,0C233.7,33.6,233.9,33.8,234,34z"/>
					<path class="st5" d="M174.6,37.2c0.3,0.2,0.4,0.6,0.2,0.9c-0.2,0.2-0.4,0.2-0.6,0c-0.2-0.3-0.4-0.6-0.5-0.9
						C174,36.8,174.3,36.8,174.6,37.2z"/>
					<path class="st5" d="M253.8,16.3c0,0.1-0.1,0.1-0.1,0.2c0-0.1-0.1-0.1-0.1-0.2c0-0.1,0.1-0.1,0.1-0.2
						C253.8,16.2,253.8,16.2,253.8,16.3z"/>
					<path class="st5" d="M234.5,35.3c0.4,0,0.8,0.2,0.9,0.6C235,35.9,234.6,35.6,234.5,35.3z"/>
					<path class="st5" d="M174.6,37.2h-0.9C174,36.6,174.3,36.6,174.6,37.2z"/>
					<path class="st5" d="M235.9,35.9c0.2-0.2,0.3-0.4,0.5-0.6C236.2,35.5,236,35.7,235.9,35.9z"/>
					<path class="st5" d="M235.9,33.4c-0.2-0.2-0.3-0.4-0.5-0.6C235.6,32.9,235.7,33.2,235.9,33.4z"/>
					<path class="st3" d="M81.6,20.1c0,0.9-2.2,3.1-2.8,2.9c-0.1,0-0.1-0.1-0.2-0.1c-0.5-0.4-0.7-1-0.5-1.5c0.4-1.5,1.7-3.2,2.4-2.9
						C81.2,18.6,81.4,19.4,81.6,20.1z"/>
					<path class="st3" d="M54,32.5c-0.1,0.3-0.2,0.6-0.4,0.6c-0.4-0.1-0.6-0.4-0.6-0.8c0-0.5,0.2-0.7,0.6-0.7
						C53.8,31.7,54,32,54,32.5z"/>
					<path class="st3" d="M126.3,37.1c0-0.2,0.1-0.4,0.2-0.3c0.1,0.1,0.2,0.3,0.2,0.4c0,0-0.1,0.2-0.1,0.2
						C126.5,37.3,126.4,37.2,126.3,37.1z"/>
					<path class="st3" d="M59.5,20.7c0,0.2,0.1,0.4,0.1,0.5c-0.1,0.3-0.2,0.3-0.3,0c0-0.1,0-0.2,0-0.3
						C59.2,20.7,59.3,20.6,59.5,20.7z"/>
					<path class="st3" d="M170.3,24.6c-0.1,0-0.1,0.1-0.1,0c0-0.1-0.1-0.1-0.1-0.2c0.1,0,0.1-0.1,0.1,0
						C170.3,24.5,170.3,24.5,170.3,24.6z"/>
					<path class="st3" d="M52.1,28.4c-0.1,0-0.1,0.1-0.1,0c0-0.1-0.1-0.1-0.1-0.2c0.1,0,0.1-0.1,0.1,0
						C52.1,28.2,52.1,28.3,52.1,28.4z"/>
					<path class="st3" d="M118.8,36c-0.1,0-0.1,0-0.2-0.1c0-0.1,0-0.2,0.1-0.2c0,0,0.1,0,0.1,0.1C118.9,35.9,118.8,36,118.8,36z"/>
					<path class="st5" d="M164.3,32.3c0,0-0.1,0-0.1-0.1c0-0.1,0-0.2,0.1-0.2c0,0,0.1,0,0.1,0.1C164.3,32.1,164.3,32.2,164.3,32.3z"
						/>
				</g>
			</g>
			<g>
				<g>
					<path class="st6" d="M87.9,27.2c-0.2,0.2-0.3,0.4-0.5,0.6c0,0.9-0.1,1.9-0.1,2.8c-0.1,1.8,0.2,2.6,1.5,2.8
						c0.7,0.1,1.4,0.1,2.1,0c1,0,2,0.5,2.4,1.4c1.2,1.8,2.8,1.6,3.8-0.3c0.4-0.7,0.7-1.2,1.3-1.1c1.4,0.2,2.9-0.6,4.3,0.7
						c0.5,0.5,1.1,0.8,1.7,0c0.4-1,0.3-2.2-0.3-3.2c-0.9-1.2-2.6-1.4-3.8-0.6c-1.5,1.3-3.1,1.5-4.8,1.7c-1.9,0.3-3.4-0.7-5.1-1.4
						c-0.7-0.4-1.1-1.2-0.9-1.9C89.7,26.9,88.8,27.2,87.9,27.2z"/>
					<path class="st6" d="M143.6,35.6c-1.2-1.3-2.1-0.1-3,0.8c-0.5-0.4-0.8-1-0.7-1.7c0.2-1.1-0.3-2.3-1.3-2.8
						c-0.9-0.5-1.9-1.5-2.4-0.3c-0.4,1.3-0.2,2.6,0.4,3.8c0.5,1,1.4,1.5,1.8,2.8c0.2,0.7,1,0.7,1.5,0.4c0.9-0.6,1.9-1.1,3-1.4
						C143.3,37,143.5,36.2,143.6,35.6z"/>
					<path class="st6" d="M71.2,32.9c-1,0.7-1.8,0.5-2.3-0.9c-0.2-0.7-0.5-1.1-1-0.4c-1.1,4.3-1,4.5,2.2,4.4c0.6,0,1.5,0.4,1.8-0.7
						C72.2,34.4,71.9,33.5,71.2,32.9z"/>
					<path class="st7" d="M83.2,31.8c-0.5,1,0.5,1.5,0.3,2.4c-0.4,1.6,0.4,2.1,1.3,2.3c0.6,0.2,1.1-0.3,1.2-1.1
						c0.2-1.2,0.2-2.3-0.7-3C84.6,31.9,83.9,31.3,83.2,31.8z"/>
					<path class="st6" d="M36,25.9h-0.5c-1.5,0.1-2.8,1.7-4.4,1.4c-0.4-0.1-0.7,0.5-0.6,1.1c0.1,0.7,0.5,1.3,1,1
						c1.2-0.6,2.5-1,3.8-1.2C36.2,28.1,35.9,26.8,36,25.9z"/>
					<path class="st6" d="M144,31c-0.9,0.1-0.9,1-0.9,1.9c0.3,0.8,0.5,1.7,0.5,2.5c1.3-0.2,1.9-2,3.2-2.3c0.4-0.1,0.7-0.9,0.3-1.6
						c-0.3-0.6-0.7-0.2-1,0.2C145,33.4,144.6,31.7,144,31z"/>
					<path class="st6" d="M153.3,31h-0.9c-0.9-0.1-1.6,0.6-2.5,0.7c-0.4,0.1-0.6,0.4-0.5,0.7c0,0,0,0.1,0,0.1c0,0.3,0.2,0.5,0.4,0.7
						c1,0.5,2.1,0.5,3.2,0.1C153.9,32.9,153.6,31.9,153.3,31z"/>
					<path class="st6" d="M76.4,33.5c-0.7-0.3-1.2-0.3-1.3,0.7c-0.2,1,0.3,1.6,1,1.8c0.5,0.1,1.1,0.1,1.6,0c0.7-0.2,1.1-0.8,0.9-1.5
						c-0.1-0.8-0.6-0.8-1.1-0.9C77.1,33.5,76.7,33.5,76.4,33.5z"/>
					<path class="st6" d="M128.8,33.6c-0.1-1.2,0-2.4,0.3-3.6c-1.2,0.1-1.9,2.1-3.2,1.4c-0.2-0.1-0.4,0.6-0.3,1c0,0.6,0.2,0.9,0.7,1
						C127.1,33.3,127.9,33.5,128.8,33.6z"/>
					<path class="st6" d="M112,30.5c1.6,0.8,2.9-0.5,4.2,0c0.2,0.1,0.4-0.6,0.4-1c-0.1-0.6-0.4-0.9-0.8-0.7
						C114.6,29.3,113.3,29,112,30.5z"/>
					<path class="st6" d="M46,31.7c-0.3,0-0.5,0.2-0.5,0.5c-0.1,0.3,0,0.6,0.2,0.8c0.7,0.7,1.3,1.5,1.7,2.4c0.1,0.3,0.4,0.4,0.6,0.1
						c0.2-0.2,0.3-0.5,0.4-0.7C48.5,34,46.6,31.6,46,31.7z"/>
					<path class="st6" d="M131.5,30.9c-1.9,2.1-1.8,2.4,0.6,4.3C132.3,33.6,131.7,32.4,131.5,30.9z"/>
					<path class="st6" d="M119.4,31.5c0-0.7-0.3-1-0.7-1.1c-0.6-0.1-1,0.4-1,1.3c0,0.6,0.1,1.4,0.7,1.4
						C119,33,119.3,32.2,119.4,31.5z"/>
					<path class="st6" d="M122.4,36c0.7-0.1,1.2-0.7,1.2-1.4c0-0.6-0.3-1-0.7-0.7c-0.4,0.3-1.2,0.1-1.3,1
						C121.5,35.6,122,35.8,122.4,36z"/>
					<path class="st6" d="M40,30.6c-0.9-1.2-1.7-0.9-2.8-0.6C38.1,31,38.9,31.2,40,30.6z"/>
					<path class="st6" d="M63.5,35.1c0.2,0,0.5-0.2,0.6-0.7c0.1-0.5-0.2-0.8-0.5-0.8c-0.3,0-0.5,0.4-0.5,0.8
						C63,34.8,63.1,35.1,63.5,35.1z"/>
					<path class="st7" d="M66.4,34.4c0-0.3-0.1-0.6-0.3-0.6c-0.2,0-0.3,0.3-0.3,0.6c0,0.2,0.1,0.4,0.2,0.4
						C66.2,35,66.3,34.7,66.4,34.4z"/>
					<path class="st6" d="M26.7,33.5c-0.1-0.6,0.2-1.3-0.4-1.6c-0.1,0-0.3,0.1-0.3,0.2C25.9,33,26.3,33.2,26.7,33.5z"/>
					<path class="st6" d="M81.4,33.8c0.1-0.1,0.3-0.2,0.2-0.4c0-0.4-0.2-0.4-0.4-0.5c-0.2-0.1-0.3-0.1-0.2,0.3
						C81.1,33.5,81.1,33.7,81.4,33.8z"/>
					<path class="st6" d="M129.2,34.4c0.1-0.1,0.3-0.2,0.2-0.4c0-0.4-0.2-0.4-0.4-0.5c-0.2-0.1-0.3-0.1-0.2,0.3
						C128.8,34.1,128.9,34.4,129.2,34.4z"/>
					<path class="st8" d="M177.1,19.5c0,0.7,0.3,1.1,0.8,1.2c0.4,0.1,0.7-0.2,0.8-0.8c0.1-0.7,0-1.3-0.6-1.4
						C177.7,18.4,177.3,18.8,177.1,19.5z"/>
					<path class="st8" d="M203.8,30.2c0-0.6-0.1-1.3-0.8-1.4c-0.5,0-0.5,0.6-0.5,1.1c0,0.7,0.2,1.3,0.7,1.4
						C203.7,31.4,203.8,30.9,203.8,30.2z"/>
					<path class="st9" d="M10.8,16.6c0.1-0.1,0.2-0.3,0.2-0.4c0-0.2-0.1-0.3-0.3-0.2c-0.1,0.1-0.1,0.1-0.1,0.2
						C10.6,16.5,10.7,16.6,10.8,16.6z"/>
					<path class="st8" d="M183.6,18.1c0-0.1,0-0.1-0.1-0.2c-0.1,0-0.1,0-0.2,0.1c0,0,0,0.1,0,0.2C183.5,18.1,183.5,18.1,183.6,18.1z
						"/>
				</g>
			</g>
		</g>
	</g>
</g>
</svg>
