<svg id="Group_597" data-name="Group 597" xmlns="http://www.w3.org/2000/svg" width="6.266mm" height="5.0267mm" viewBox="0 0 17.762 14.249"><title>icon</title><path id="bars" d="M.634,2.338H17.128a.586.586,0,0,0,.634-.519V.519A.586.586,0,0,0,17.128,0H.634A.586.586,0,0,0,0,.519v1.3A.586.586,0,0,0,.634,2.338Zm0,5.195H17.128a.586.586,0,0,0,.634-.519v-1.3a.586.586,0,0,0-.634-.519H.634A.586.586,0,0,0,0,5.714v1.3A.586.586,0,0,0,.634,7.533Zm0,5.195H17.128a.586.586,0,0,0,.634-.519v-1.3a.586.586,0,0,0-.634-.519H.634A.586.586,0,0,0,0,10.909v1.3A.586.586,0,0,0,.634,12.728Z"/></svg>