<svg id="Group_597" data-name="Group 597" xmlns="http://www.w3.org/2000/svg" width="6.0424mm" height="4.3071mm" viewBox="0 0 17.128 12.209"><title>icon</title><path id="bars" d="M0,2.338H16.494a.586.586,0,0,0,.634-.519V.519A.586.586,0,0,0,16.494,0H0A.586.586,0,0,0-.634.519v1.3A.586.586,0,0,0,0,2.338ZM0,7.533H16.494a.586.586,0,0,0,.634-.519v-1.3a.586.586,0,0,0-.634-.519H0a.586.586,0,0,0-.634.519v1.3A.586.586,0,0,0,0,7.533Zm0,5.195H16.494a.586.586,0,0,0,.634-.519v-1.3a.586.586,0,0,0-.634-.519H0a.586.586,0,0,0-.634.519v1.3A.586.586,0,0,0,0,12.728Z"/></svg>