<?xml version="1.0" encoding="utf-8"?>
<!-- Generator: Adobe Illustrator 23.0.1, SVG Export Plug-In . SVG Version: 6.00 Build 0)  -->
<svg version="1.1" id="layer" xmlns="http://www.w3.org/2000/svg" xmlns:xlink="http://www.w3.org/1999/xlink" x="0px" y="0px"
	 viewBox="0 0 334.5 331.7" style="enable-background:new 0 0 334.5 331.7;" xml:space="preserve">
<style type="text/css">
	.st0{fill:#F4F4F4;stroke:#000000;stroke-miterlimit:10;}
	.st1{fill:#202020;stroke:#000000;stroke-miterlimit:10;}
</style>
<g>
	<rect x="1.1" y="-0.3" class="st0" width="332.3" height="332.3"/>
	<path class="st1" d="M81.1,199.6c-0.4-2.3-1.7-3.8-3.8-3.8c-2.8,0-3.6,1.9-3.6,3.3c0,1.5,0.9,2.4,2.9,3.2l2.5,0.9
		c3.2,1.2,4.6,3.1,4.6,5.5c0,3.2-2.6,5.6-6.4,5.6c-3.6,0-6.2-1.9-6.5-5.9h2.5c0.2,2.2,1.3,3.7,4.1,3.7c2.2,0,3.8-1.4,3.8-3.2
		c0-1.5-1.3-2.5-3.1-3.3l-2.5-1c-3-1.2-4.4-2.9-4.4-5.5c0-3.5,2.9-5.5,6.2-5.5s5.9,2,6.2,6L81.1,199.6L81.1,199.6z M104.6,193.6
		c5.7,0.2,10.2,4.9,10,10.6c-0.2,5.7-4.9,10.2-10.6,10c-5.6-0.2-10-4.7-10-10.3c0-5.7,4.6-10.3,10.3-10.3
		C104.5,193.6,104.5,193.6,104.6,193.6 M104.6,211.8c4.4,0,8-3.5,8-7.9s-3.5-8-7.9-8s-8,3.5-8,7.9c0,0,0,0,0,0.1
		C96.7,208.3,100.2,211.8,104.6,211.8C104.6,211.8,104.6,211.8,104.6,211.8"/>
	<g>
		<path class="st1" d="M16.1,113.3h8.4v39.8c0,10.9,6,19.7,17.6,19.7s17.6-8.9,17.6-19.7v-39.8h8.4v42.3c0,14.3-10.9,25.1-26.2,25.1
			c-15,0-25.8-10.9-25.8-25.1L16.1,113.3L16.1,113.3z M83.7,113.3v66.4h-7.8v-66.4H83.7z M95.4,123.2h7.8v11h7.2v6.9h-7.2v33.2h4.8
			v5.4H95.4v-38.6h-6.3v-6.9h6.3L95.4,123.2L95.4,123.2z M194.8,151.8c0-7.8-4.5-11.4-9.9-11.4c-6.6,0-11.4,4.1-11.4,11.7v27.5h-7.8
			v-27.9c0-7.8-4.5-11.4-9.9-11.4c-6.6,0-11.4,4.1-11.4,11.7v22.2h4.8v5.4h-12.6v-45.5h7.8v5.4h0.2c2.1-4.6,7.7-6.5,12.6-6.5
			c4.6,0,9.7,1.2,13.5,7.8c2.8-5.8,8.8-7.8,14.8-7.8c9.8,0,17.5,5.9,17.5,17.8v23.3h4.8v5.4h-12.6v-27.8H194.8z M242.1,149.2
			c0-7.5-7.5-9.2-13.6-9.2c-4.3,0-8.3,1.1-12.6,3.2l-3.4-6.6c6.9-2.9,12.3-3.5,16.4-3.5c10.9,0,21,4.6,21,15.4v25.7h4.8v5.4h-12.1
			v-4.9c-4,4.2-8.5,5.9-14.5,5.9c-11.1,0-19.8-6.2-19.8-16.3c0-8.3,7.1-15.6,19.7-15.6c4.8,0,9.9,1.4,14.1,5.1L242.1,149.2
			L242.1,149.2z M229.6,155.6c-9.6,0-12.8,4.6-12.8,9.1s3.2,9.1,12.8,9.1c7.8,0,12.5-4.6,12.5-4.4c0,0,0-3.8,0-4.7v-4.2
			C238.7,157.4,234.2,155.6,229.6,155.6"/>
		<path class="st1" d="M260.1,123.2h7.8v11h7.2v6.9H268v33.2h4.8v5.4h-12.6v-38.6h-6.3v-6.9h6.3L260.1,123.2L260.1,123.2z
			 M319.9,170.9c-6.1,6.8-12.6,9.9-20.5,9.9c-16.2,0-24.8-11.7-24.8-23.9c0-12.9,9.3-23.8,23.5-23.8c14.1,0,23.9,10.8,23.9,26.8
			h-38.9c1.2,7.7,7.5,13.5,16.3,13.5c5.6,0,10.6-2.6,14.6-7.3L319.9,170.9L319.9,170.9L319.9,170.9z M313,153.5
			c-0.8-7.5-6.9-13-15-13c-9.6,0-14.2,6.8-15,13H313z"/>
		<path class="st1" d="M127.9,126.1c0,2.9-2.4,5.3-5.3,5.3s-5.3-2.4-5.3-5.3s2.3-5.2,5.2-5.3C125.5,120.8,127.9,123.2,127.9,126.1
			 M126.6,174.3v-15.2h3.7v-21.5c0.1-1.9-1.5-3.4-3.4-3.5h-0.1h-8.5c-1.9,0-3.5,1.5-3.5,3.5l0,0v21.5h3.5v20.6h8.2V174.3
			L126.6,174.3L126.6,174.3z"/>
		<path class="st1" d="M126.4,193.9h10.3v2.3H129v6.3h7.8v2.3H129v8.9h-2.5L126.4,193.9L126.4,193.9z M151.6,196.3h-5v-2.3h12.5v2.3
			h-5v17.6h-2.5V196.3L151.6,196.3z M191.2,193.9h2.7l-6.2,20h-1.9l-4.8-15.9h-0.1l-4.8,15.9h-1.9l-6.2-20h2.7l4.5,15.2h0.1
			l4.5-15.2h2.3l4.6,15.2h0.1L191.2,193.9z M215.2,209.3h-9.3l-1.8,4.6h-2.8l8.1-20h2.2l8.1,20h-2.8L215.2,209.3z M210.5,197.2
			l-3.8,9.8h7.5L210.5,197.2z M232.6,205.3v8.5h-2.5v-20h5.8c3.8,0,6.7,2.2,6.7,6.1c0,3.6-2.8,5.8-6.1,6l7.8,8h-3.6L232.6,205.3
			L232.6,205.3L232.6,205.3z M232.6,203.8c0.4,0.1,0.7,0.1,2.2,0.1c3.9,0,5.2-1.7,5.2-3.9c0-2.3-1.6-3.9-4.2-3.9h-3.2L232.6,203.8
			L232.6,203.8L232.6,203.8z M254.6,193.9h10.3v2.3h-7.8v6.3h7.8v2.3h-7.8v6.6h7.8v2.3h-10.3V193.9L254.6,193.9z"/>
	</g>
</g>
</svg>
