<?xml version="1.0" encoding="utf-8"?>
<!-- Generator: Adobe Illustrator 23.0.1, SVG Export Plug-In . SVG Version: 6.00 Build 0)  -->
<svg version="1.1"
	 id="svg2" inkscape:version="0.43" sodipodi:docbase="/home/sdeibel" sodipodi:docname="logo-python-generic.svg" sodipodi:version="0.32" xmlns:cc="http://web.resource.org/cc/" xmlns:dc="http://purl.org/dc/elements/1.1/" xmlns:inkscape="http://www.inkscape.org/namespaces/inkscape" xmlns:rdf="http://www.w3.org/1999/02/22-rdf-syntax-ns#" xmlns:sodipodi="http://inkscape.sourceforge.net/DTD/sodipodi-0.dtd" xmlns:svg="http://www.w3.org/2000/svg"
	 xmlns="http://www.w3.org/2000/svg" xmlns:xlink="http://www.w3.org/1999/xlink" x="0px" y="0px" viewBox="0 0 652.8 654.7"
	 style="enable-background:new 0 0 652.8 654.7;" xml:space="preserve">
<style type="text/css">
	.st0{fill:#F4F4F4;stroke:#000000;stroke-miterlimit:10;}
	.st1{fill:#646464;}
	.st2{fill:#1F2021;}
	.st3{opacity:0.4438;fill:url(#path1894_1_);enable-background:new    ;}
</style>
<rect class="st0" width="652.8" height="654.7"/>
<sodipodi:namedview  bordercolor="#666666" borderopacity="1.0" id="base" inkscape:current-layer="svg2" inkscape:cx="243.02499" inkscape:cy="71.887497" inkscape:pageopacity="0.0" inkscape:pageshadow="2" inkscape:window-height="543" inkscape:window-width="791" inkscape:window-x="0" inkscape:window-y="0" inkscape:zoom="1.4340089" pagecolor="#ffffff">
	</sodipodi:namedview>
<path id="path46" class="st1" d="M273.2,321.8c0-14.6-4.2-22-12.5-22.4c-3.3-0.2-6.5,0.4-9.7,1.6c-2.5,0.9-4.2,1.8-5.1,2.7v34.8
	c5.3,3.3,10,4.9,14.1,4.6C268.8,342.4,273.2,335.3,273.2,321.8z M283.4,322.4c0,7.4-1.7,13.5-5.2,18.4c-3.9,5.5-9.3,8.4-16.2,8.5
	c-5.2,0.2-10.5-1.5-16.1-4.9V376l-8.9-3.2v-70.1c1.5-1.8,3.3-3.3,5.6-4.6c5.3-3.1,11.7-4.7,19.3-4.8l0.1,0.1
	c6.9-0.1,12.3,2.8,16,8.5C281.7,307.3,283.4,314.1,283.4,322.4z"/>
<path id="path48" class="st1" d="M337.9,343.1c0,9.9-1,16.8-3,20.6c-2,3.8-5.8,6.9-11.4,9.1c-4.6,1.8-9.5,2.8-14.8,2.9l-1.5-5.6
	c5.4-0.7,9.2-1.5,11.3-2.2c4.3-1.5,7.3-3.7,8.9-6.7c1.3-2.4,1.9-7.1,1.9-14v-2.3c-6.1,2.8-12.5,4.1-19.2,4.1
	c-4.4,0-8.3-1.4-11.6-4.1c-3.7-3-5.6-6.8-5.6-11.5v-37.1l8.9-3.1v37.3c0,4,1.3,7.1,3.9,9.2c2.6,2.2,5.9,3.2,10,3.1
	c4.1-0.1,8.5-1.7,13.1-4.8v-43.5h8.9V343.1z"/>
<path id="path50" class="st1" d="M372.7,348.8c-1.1,0.1-2,0.1-2.9,0.1c-5,0-9-1.2-11.8-3.6c-2.8-2.4-4.2-5.7-4.2-10v-35.1h-6.1v-5.6
	h6.1v-14.9l8.9-3.2v18.1h10v5.6h-10v34.8c0,3.3,0.9,5.7,2.7,7.1c1.5,1.1,4,1.8,7.3,2V348.8z"/>
<path id="path52" class="st1" d="M426.6,348.1h-8.9v-34.4c0-3.5-0.8-6.5-2.4-9c-1.9-2.8-4.5-4.3-7.8-4.3c-4.1,0-9.2,2.2-15.3,6.5
	v41.2h-8.9v-82.2l8.9-2.8v37.4c5.7-4.1,11.9-6.2,18.7-6.2c4.7,0,8.5,1.6,11.5,4.8c2.9,3.2,4.4,7.1,4.4,11.8V348.1L426.6,348.1z"/>
<path id="path54" class="st1" d="M474,320.4c0-5.6-1.1-10.2-3.2-13.9c-2.5-4.5-6.4-6.8-11.7-7c-9.8,0.6-14.6,7.6-14.6,21
	c0,6.2,1,11.3,3.1,15.4c2.6,5.3,6.5,7.8,11.8,7.8C469.1,343.5,474,335.8,474,320.4z M483.7,320.4c0,8-2,14.6-6.1,19.9
	c-4.5,5.9-10.7,8.9-18.5,8.9c-7.8,0-13.9-3-18.3-8.9c-4-5.3-6-11.9-6-19.9c0-7.5,2.2-13.8,6.5-18.9c4.6-5.4,10.5-8.2,17.9-8.2
	c7.4,0,13.4,2.7,18.1,8.2C481.6,306.6,483.7,312.9,483.7,320.4z"/>
<path id="path56" class="st1" d="M534.8,348.1h-8.9v-36.3c0-4-1.2-7.1-3.6-9.3c-2.4-2.2-5.6-3.3-9.6-3.2c-4.2,0.1-8.3,1.5-12.1,4.1
	v44.8h-8.9v-45.9c5.1-3.7,9.8-6.2,14.2-7.3c4.1-1.1,7.7-1.6,10.7-1.6c2.1,0,4.1,0.2,6,0.6c3.5,0.8,6.3,2.3,8.5,4.5
	c2.4,2.4,3.7,5.4,3.7,8.8V348.1z"/>
<path id="path1948" class="st2" d="M149.1,266.2c-4.6,0-9,0.4-12.8,1.1c-11.3,2-13.4,6.2-13.4,13.9v10.2h26.8v3.4h-26.8h-10.1
	c-7.8,0-14.6,4.7-16.8,13.6c-2.5,10.2-2.6,16.6,0,27.3c1.9,7.9,6.5,13.6,14.3,13.6h9.2v-12.3c0-8.8,7.7-16.7,16.8-16.7h26.8
	c7.5,0,13.4-6.1,13.4-13.6v-25.5c0-7.3-6.1-12.7-13.4-13.9C158.5,266.6,153.7,266.2,149.1,266.2z M134.6,274.5c2.8,0,5,2.3,5,5.1
	c0,2.8-2.3,5.1-5,5.1c-2.8,0-5-2.3-5-5.1C129.6,276.8,131.8,274.5,134.6,274.5z"/>
<path id="path1950" class="st2" d="M179.8,294.9v11.9c0,9.2-7.8,17-16.8,17h-26.8c-7.3,0-13.4,6.3-13.4,13.6V363
	c0,7.3,6.3,11.5,13.4,13.6c8.5,2.5,16.6,2.9,26.8,0c6.8-2,13.4-5.9,13.4-13.6v-10.2h-26.8v-3.4h26.8h13.4c7.8,0,10.7-5.4,13.4-13.6
	c2.8-8.4,2.7-16.5,0-27.3c-1.9-7.8-5.6-13.6-13.4-13.6H179.8z M164.8,359.6c2.8,0,5,2.3,5,5.1c0,2.8-2.3,5.1-5,5.1
	c-2.8,0-5-2.3-5-5.1C159.7,361.8,162,359.6,164.8,359.6z"/>
<path id="text3004" class="st1" d="M552.1,286.8h1.6V277h3.7v-1.2h-9v1.2h3.7V286.8 M558.8,286.8h1.3v-8.9l2.9,8.9h1.5l3-8.9v8.9
	h1.5v-11h-1.9l-3.3,9.4l-2.8-9.4h-2.2V286.8"/>
<radialGradient id="path1894_1_" cx="-1465.7255" cy="508.784" r="29.0369" gradientTransform="matrix(1.749057e-08 -0.2399 -1.0547 -3.791546e-07 686.5963 42.2425)" gradientUnits="userSpaceOnUse">
	<stop  offset="0" style="stop-color:#B8B8B8;stop-opacity:0.498"/>
	<stop  offset="1" style="stop-color:#7F7F7F;stop-opacity:0"/>
</radialGradient>
<path id="path1894" class="st3" d="M185.9,393.9c0,3.8-16.1,7-35.9,7s-35.9-3.1-35.9-7c0-3.8,16.1-7,35.9-7S185.9,390.1,185.9,393.9
	z"/>
</svg>
