<?xml version="1.0" encoding="utf-8"?>
<!-- Generator: Adobe Illustrator 23.0.1, SVG Export Plug-In . SVG Version: 6.00 Build 0)  -->
<svg version="1.1" id="layer" xmlns="http://www.w3.org/2000/svg" xmlns:xlink="http://www.w3.org/1999/xlink" x="0px" y="0px"
	 viewBox="0 0 652 652" style="enable-background:new 0 0 652 652;" xml:space="preserve">
<style type="text/css">
	.st0{fill:#F4F4F4;stroke:#000000;stroke-miterlimit:10;}
	.st1{fill:#202020;stroke:#000000;stroke-miterlimit:10;}
</style>
<rect class="st0" width="652" height="652"/>
<path class="st1" d="M156.9,392.2c-0.7-4.6-3.4-7.5-7.5-7.5c-5.5,0-7.1,3.7-7.1,6.4c0,2.9,1.8,4.8,5.7,6.3l5,1.8
	c6.3,2.3,9.1,6,9.1,10.7c0,6.3-5.1,10.9-12.6,10.9c-7.1,0-12.2-3.8-12.8-11.6h5c0.4,4.3,2.6,7.3,8.1,7.3c4.3,0,7.4-2.8,7.4-6.2
	c0-3-2.5-5-6.1-6.4l-5-2c-5.8-2.3-8.7-5.7-8.7-10.7c0-6.8,5.6-10.8,12.1-10.8s11.6,3.9,12.1,11.8L156.9,392.2L156.9,392.2z
	 M203.1,380.4c11.2,0.3,20,9.6,19.7,20.8s-9.6,20-20.8,19.7c-11-0.3-19.7-9.3-19.7-20.2c0-11.2,9.1-20.3,20.3-20.2
	C202.8,380.4,202.9,380.4,203.1,380.4 M203.1,416.2c8.6,0,15.6-6.9,15.6-15.5s-6.9-15.6-15.5-15.6s-15.6,6.9-15.6,15.5
	c0,0,0,0,0,0.1c-0.1,8.6,6.8,15.5,15.4,15.6C203,416.2,203.1,416.2,203.1,416.2"/>
<g>
	<path class="st1" d="M29.4,223h16.4v78.1c0,21.3,11.8,38.7,34.6,38.7s34.6-17.5,34.6-38.7V223h16.4v82.9
		c0,28.1-21.3,49.3-51.4,49.3c-29.4,0-50.7-21.3-50.7-49.3V223H29.4z M162,223v130.2h-15.4V223H162z M185.1,242.3h15.4v21.6h14.2
		v13.5h-14.2v65.2h9.4v10.5H185v-75.7h-12.3v-13.5H185L185.1,242.3L185.1,242.3z M380.1,298.5c0-15.4-8.9-22.3-19.5-22.3
		c-12.9,0-22.4,8.1-22.4,23v54h-15.4v-54.7c0-15.4-8.9-22.3-19.5-22.3c-12.9,0-22.4,8.1-22.4,23v43.5h9.4v10.5h-24.8v-89.3h15.4
		v10.6h0.3c4.1-9.1,15.2-12.7,24.7-12.7c9.1,0,19,2.4,26.4,15.4c5.5-11.3,17.3-15.4,29.1-15.4c19.2,0,34.3,11.5,34.3,34.9v45.8h9.4
		V353h-24.8v-54.5H380.1z M472.9,293.4c0-14.7-14.7-18-26.7-18c-8.4,0-16.3,2.1-24.7,6.2l-6.7-12.9c13.5-5.7,24.2-6.9,32.2-6.9
		c21.4,0,41.3,9.1,41.3,30.3v50.5h9.4v10.5H474v-9.6c-7.9,8.2-16.6,11.6-28.4,11.6c-21.8,0-38.9-12.2-38.9-32
		c0-16.3,13.9-30.7,38.7-30.7c9.4,0,19.4,2.8,27.6,10.1v-9.1H472.9z M448.3,306c-18.8,0-25.2,9.1-25.2,17.8s6.3,17.8,25.2,17.8
		c15.3,0,24.5-9,24.5-8.6c0,0,0-7.5,0-9.2v-8.3C466.1,309.4,457.3,306,448.3,306"/>
	<path class="st1" d="M508.2,242.3h15.4v21.6h14.2v13.5h-14.2v65.2h9.4v10.5h-24.8v-75.7h-12.3v-13.5h12.3L508.2,242.3L508.2,242.3z
		 M625.4,335.9c-12,13.4-24.7,19.4-40.3,19.4c-31.7,0-48.7-23-48.7-46.8c0-25.4,18.2-46.6,46.1-46.6c27.6,0,46.8,21.1,46.8,52.6
		h-76.4c2.4,15.2,14.7,26.4,32,26.4c11,0,20.7-5.1,28.6-14.4L625.4,335.9L625.4,335.9L625.4,335.9z M611.9,301.8
		c-1.5-14.7-13.5-25.5-29.5-25.5c-18.8,0-27.9,13.4-29.5,25.5H611.9z"/>
	<path class="st1" d="M248.8,248.1c0,5.7-4.7,10.4-10.4,10.4s-10.4-4.7-10.4-10.4s4.6-10.3,10.3-10.4
		C244.1,237.7,248.7,242.3,248.8,248.1 M246.2,342.6v-29.9h7.3v-42.1c0.1-3.7-2.9-6.7-6.6-6.8h-0.1h-16.7c-3.8,0-6.8,3-6.8,6.8l0,0
		v42.1h6.8v40.4h16.1V342.6L246.2,342.6L246.2,342.6z"/>
	<path class="st1" d="M245.9,381.1h20.3v4.6h-15.3v12.4h15.3v4.6h-15.3v17.5h-5L245.9,381.1L245.9,381.1z M295.2,385.7h-9.8v-4.6
		H310v4.6h-9.8v34.6h-5L295.2,385.7L295.2,385.7z M372.9,381.1h5.3l-12.1,39.2h-3.8l-9.4-31.1h-0.1l-9.4,31.1h-3.8l-12.1-39.2h5.3
		l8.8,29.8h0.1l8.9-29.8h4.6l9,29.9h0.1L372.9,381.1z M420,411.2h-18.3l-3.6,9.1h-5.4l15.9-39.2h4.3l15.9,39.2h-5.4L420,411.2z
		 M410.8,387.5l-7.4,19.3h14.8L410.8,387.5z M454.3,403.5v16.7h-5V381h11.3c7.5,0,13.2,4.3,13.2,11.9c0,7-5.5,11.4-11.9,11.7
		l15.3,15.6h-7L454.3,403.5L454.3,403.5L454.3,403.5z M454.3,400.5c0.7,0.1,1.4,0.1,4.3,0.1c7.6,0,10.2-3.3,10.2-7.6
		c0-4.6-3.1-7.6-8.3-7.6h-6.3L454.3,400.5L454.3,400.5L454.3,400.5z M497.3,381.1h20.3v4.6h-15.3v12.4h15.3v4.6h-15.3v12.9h15.3v4.6
		h-20.3V381.1L497.3,381.1z"/>
</g>
</svg>
